<svg xmlns="http://www.w3.org/2000/svg" width="106.665" height="104" viewBox="0 0 106.665 104">
  <path id="github-brands" d="M35.677,91.741c0,.43-.495.774-1.118.774-.71.065-1.2-.28-1.2-.774,0-.43.495-.774,1.118-.774C35.118,90.9,35.677,91.246,35.677,91.741Zm-6.688-.968c-.151.43.28.925.925,1.054a1.009,1.009,0,0,0,1.333-.43c.129-.43-.28-.925-.925-1.118a1.1,1.1,0,0,0-1.333.495Zm9.505-.366c-.624.151-1.054.559-.989,1.054.065.43.624.71,1.269.559.624-.151,1.054-.559.989-.989C39.7,90.622,39.118,90.343,38.494,90.407ZM52.644,8C22.817,8,0,30.645,0,60.472a53.915,53.915,0,0,0,36.451,51.44c2.753.495,3.72-1.2,3.72-2.6,0-1.333-.065-8.688-.065-13.2,0,0-15.054,3.226-18.215-6.409,0,0-2.452-6.258-5.978-7.871,0,0-4.925-3.376.344-3.312a11.352,11.352,0,0,1,8.3,5.548c4.71,8.3,12.6,5.914,15.677,4.495a11.952,11.952,0,0,1,3.441-7.247c-12.021-1.333-24.15-3.075-24.15-23.763,0-5.914,1.634-8.882,5.075-12.666-.559-1.4-2.387-7.161.559-14.6C29.655,28.881,40,36.086,40,36.086a50.8,50.8,0,0,1,27.01,0s10.344-7.226,14.838-5.806c2.946,7.462,1.118,13.2.559,14.6,3.441,3.806,5.548,6.774,5.548,12.666,0,20.752-12.666,22.408-24.688,23.763,1.978,1.7,3.656,4.925,3.656,9.978,0,7.247-.065,16.215-.065,17.978,0,1.4.989,3.1,3.72,2.6,21.505-7.14,36.085-27.548,36.085-51.4C106.665,30.645,82.472,8,52.644,8ZM20.9,82.171c-.28.215-.215.71.151,1.118.344.344.839.495,1.118.215.28-.215.215-.71-.151-1.118C21.677,82.042,21.182,81.891,20.9,82.171ZM18.58,80.429c-.151.28.065.624.495.839A.64.64,0,0,0,20,81.117c.151-.28-.065-.624-.495-.839C19.075,80.149,18.731,80.214,18.58,80.429Zm6.968,7.656c-.344.28-.215.925.28,1.333.495.495,1.118.559,1.4.215.28-.28.151-.925-.28-1.333C26.473,87.805,25.828,87.741,25.548,88.085ZM23.1,84.924c-.344.215-.344.774,0,1.269s.925.71,1.2.495a.981.981,0,0,0,0-1.333C24,84.859,23.44,84.644,23.1,84.924Z" transform="translate(0 -8)" fill="#fff"/>
</svg>
