<svg xmlns="http://www.w3.org/2000/svg" width="104" height="104" viewBox="0 0 104 104">
  <g id="Group_20" data-name="Group 20" transform="translate(-1211 -6062)">
    <circle id="Ellipse_13" data-name="Ellipse 13" cx="52" cy="52" r="52" transform="translate(1211 6062)" fill="#2980b9"/>
    <path id="linkedin-in-brands" d="M10.977,49.048H.81V16.308H10.977ZM5.888,11.842A5.916,5.916,0,1,1,11.776,5.9,5.938,5.938,0,0,1,5.888,11.842Zm43.14,37.206H38.883V33.11c0-3.8-.077-8.669-5.286-8.669-5.286,0-6.1,4.127-6.1,8.4V49.048H17.345V16.308H27.1v4.466h.142a10.683,10.683,0,0,1,9.619-5.287c10.289,0,12.181,6.776,12.181,15.576V49.048Z" transform="translate(1240.481 6085.335)" fill="#fff"/>
  </g>
</svg>
