<svg xmlns="http://www.w3.org/2000/svg" width="104" height="104" viewBox="0 0 104 104">
  <g id="Group_19" data-name="Group 19" transform="translate(-1057 -6062)">
    <circle id="Ellipse_12" data-name="Ellipse 12" cx="52" cy="52" r="52" transform="translate(1057 6062)" fill="#b92929"/>
    <path id="youtube-brands" d="M84.49,71.816a8.926,8.926,0,0,0-6.281-6.322C72.669,64,50.454,64,50.454,64S28.239,64,22.7,65.494a8.927,8.927,0,0,0-6.281,6.322c-1.484,5.576-1.484,17.21-1.484,17.21s0,11.634,1.484,17.21a8.794,8.794,0,0,0,6.281,6.221c5.54,1.494,27.756,1.494,27.756,1.494s22.215,0,27.756-1.494a8.794,8.794,0,0,0,6.281-6.221c1.484-5.576,1.484-17.21,1.484-17.21S85.975,77.392,84.49,71.816Zm-41.3,27.773V78.463L61.756,89.026Z" transform="translate(1058.546 6025.024)" fill="#f4f8fc"/>
  </g>
</svg>
